<svg width="25" height="24" viewBox="0 0 25 24" fill="none" xmlns="http://www.w3.org/2000/svg">
<g id="home-line">
<path id="Icon" d="M8.5 17.0007H16.5M11.5177 2.76473L4.73539 8.03986C4.28202 8.39248 4.05534 8.56879 3.89203 8.78959C3.74737 8.98518 3.6396 9.20552 3.57403 9.43978C3.5 9.70425 3.5 9.99143 3.5 10.5658V17.8007C3.5 18.9208 3.5 19.4809 3.71799 19.9087C3.90973 20.285 4.21569 20.591 4.59202 20.7827C5.01984 21.0007 5.57989 21.0007 6.7 21.0007H18.3C19.4201 21.0007 19.9802 21.0007 20.408 20.7827C20.7843 20.591 21.0903 20.285 21.282 19.9087C21.5 19.4809 21.5 18.9208 21.5 17.8007V10.5658C21.5 9.99143 21.5 9.70425 21.426 9.43978C21.3604 9.20552 21.2526 8.98518 21.108 8.78959C20.9447 8.56879 20.718 8.39248 20.2646 8.03986L13.4823 2.76473C13.131 2.49148 12.9553 2.35485 12.7613 2.30233C12.5902 2.25599 12.4098 2.25599 12.2387 2.30233C12.0447 2.35485 11.869 2.49148 11.5177 2.76473Z" stroke="#53433F" stroke-width="2" stroke-linecap="round" stroke-linejoin="round"/>
</g>
</svg>
