<svg width="47" height="47" viewBox="0 0 47 47" fill="none" xmlns="http://www.w3.org/2000/svg">
<g clip-path="url(#clip0_161_38547)">
<path d="M23.4948 31.255C22.9741 31.255 22.5284 31.0696 22.1577 30.6989C21.7869 30.3281 21.6016 29.8824 21.6016 29.3618C21.6016 28.8412 21.7869 28.3955 22.1577 28.0247C22.5284 27.654 22.9741 27.4686 23.4948 27.4686C24.0154 27.4686 24.4611 27.654 24.8318 28.0247C25.2026 28.3955 25.388 28.8412 25.388 29.3618C25.388 29.8824 25.2026 30.3281 24.8318 30.6989C24.4611 31.0696 24.0154 31.255 23.4948 31.255ZM23.4948 25.5754C22.9741 25.5754 22.5284 25.39 22.1577 25.0193C21.7869 24.6485 21.6016 24.2028 21.6016 23.6822C21.6016 23.1616 21.7869 22.7159 22.1577 22.3451C22.5284 21.9744 22.9741 21.789 23.4948 21.789C24.0154 21.789 24.4611 21.9744 24.8318 22.3451C25.2026 22.7159 25.388 23.1616 25.388 23.6822C25.388 24.2028 25.2026 24.6485 24.8318 25.0193C24.4611 25.39 24.0154 25.5754 23.4948 25.5754ZM23.4948 19.8958C22.9741 19.8958 22.5284 19.7104 22.1577 19.3397C21.7869 18.9689 21.6016 18.5232 21.6016 18.0026C21.6016 17.4819 21.7869 17.0363 22.1577 16.6655C22.5284 16.2948 22.9741 16.1094 23.4948 16.1094C24.0154 16.1094 24.4611 16.2948 24.8318 16.6655C25.2026 17.0363 25.388 17.4819 25.388 18.0026C25.388 18.5232 25.2026 18.9689 24.8318 19.3397C24.4611 19.7104 24.0154 19.8958 23.4948 19.8958Z" fill="#53433F"/>
</g>
<defs>
<clipPath id="clip0_161_38547">
<rect x="4.56445" y="4.75" width="37.8641" height="37.8641" rx="18.932" fill="white"/>
</clipPath>
</defs>
</svg>
