<svg width="390" height="302" viewBox="0 0 390 302" fill="none" xmlns="http://www.w3.org/2000/svg">
<g clip-path="url(#clip0_181_38218)">
<g opacity="0.22" filter="url(#filter0_f_181_38218)">
<circle cx="125" cy="175" r="175" fill="white"/>
</g>
<circle cx="84" cy="162" r="31.5" stroke="#F3E2A7"/>
<path d="M390 46.877C360.01 84.0333 284.37 155.692 221.735 145.076C143.441 131.806 184.048 107.123 206.076 113.758C228.105 120.393 218.549 155.427 166.531 179.844C124.915 199.377 31.8372 207.408 -7 209" stroke="#77574D" stroke-width="1.06161"/>
<path fill-rule="evenodd" clip-rule="evenodd" d="M188.639 245.114C185.811 236.633 180.851 226.706 174.147 216.767C158.712 193.884 139.877 179.597 132.079 184.858C124.28 190.118 130.47 212.933 145.905 235.816C153.533 247.124 161.991 256.333 169.537 262.121C172.772 272.572 179.788 279.609 185.812 278.107C192.235 276.506 195.096 265.802 192.203 254.199C191.362 250.824 190.126 247.745 188.639 245.114Z" fill="#F3E2A7"/>
<path d="M128.312 184.886C106.018 192.742 89.8285 181.613 84.5202 175.066C56.069 182.922 45.2406 240.975 43.3828 269.019H171.307C170.033 222.733 142.113 193.645 128.312 184.886Z" fill="#6A5E2F"/>
<path fill-rule="evenodd" clip-rule="evenodd" d="M92.3253 238.309C92.4204 237.694 92.5117 237.074 92.5991 236.452C96.8559 206.164 90.3049 180.204 77.9671 178.47C65.6292 176.736 52.1766 199.884 47.9198 230.173C43.7055 260.159 50.0843 285.903 62.1841 288.096C72.4836 292.311 91.4171 289.374 110.402 279.701C135.078 267.128 150.497 247.936 144.84 236.835C139.368 226.095 116.174 226.862 92.3253 238.309Z" fill="#F3E2A7"/>
<circle cx="60" cy="113" r="52.5" stroke="#F3E2A7"/>
<path fill-rule="evenodd" clip-rule="evenodd" d="M182.453 282.553C191.981 282.553 199.705 278.038 199.705 272.468C199.705 266.898 191.981 262.383 182.453 262.383C175.073 262.383 168.775 265.092 166.311 268.903C165.705 268.804 165.067 268.752 164.408 268.752C160.45 268.752 157.242 270.653 157.242 272.998C157.242 275.343 160.45 277.245 164.408 277.245C165.323 277.245 166.197 277.143 167.002 276.958C169.827 280.275 175.685 282.553 182.453 282.553Z" fill="#FFF8F6"/>
<circle cx="121.122" cy="139.096" r="41.1374" fill="#FFF8F6"/>
<path d="M95.5205 144.559L84.589 158.08L84.5347 157.963C82.1215 152.751 77.4873 142.742 78.8059 133.523C81.2874 116.175 97.4338 93.6209 127.64 98.2236C151.804 101.906 160.152 121.546 161.398 130.751C159.864 134.011 155.127 140.187 148.453 138.806C141.779 137.425 141.645 129.217 142.412 125.285C136.946 127.875 125.382 132.823 122.85 131.902C120.319 130.981 122.946 127.107 124.576 125.285C113.99 135.642 104.439 133.244 100.987 130.751C98.6853 126.148 92.356 119.704 85.4519 130.751C78.5477 141.798 89.2875 144.559 95.5205 144.559Z" fill="#77574D"/>
<ellipse cx="129.724" cy="146.41" rx="2.68898" ry="4.18286" transform="rotate(25 129.724 146.41)" fill="#77574D"/>
<ellipse cx="151.033" cy="151.791" rx="2.68898" ry="4.18286" transform="rotate(25 151.033 151.791)" fill="#77574D"/>
<path d="M121.002 158.205C119.322 165.636 120.525 179.066 138.784 173.333" stroke="#77574D" stroke-width="0.530805"/>
<path d="M142.772 144.139L148.518 167.627H137.026L142.772 144.139Z" fill="#FFDBD0"/>
<path d="M335.962 128H272C290.684 158.362 284.562 188.423 279.166 199.659H342.597C353.425 177.577 342.686 142.686 335.962 128Z" fill="#F3E2A7"/>
<ellipse cx="127.904" cy="224.096" rx="14.5197" ry="6.36966" transform="rotate(-67 127.904 224.096)" fill="#FFF8F6"/>
<path d="M230 153.213C251.232 136.015 264.148 91.9052 267.953 72H330.853C336.586 101.513 310.505 140.739 298.474 156.663L230 153.213Z" fill="#FFF8F6"/>
<path d="M165.13 266.898L173.157 260.792L174.485 271.959L165.13 266.898Z" fill="#FFF8F6"/>
<rect x="127.512" y="216.967" width="10.0853" height="62.7864" transform="rotate(-37 127.512 216.967)" fill="#77574D"/>
<path d="M172.175 270.708L174.159 269.198L174.488 271.959L172.175 270.708Z" fill="#410002"/>
<path fill-rule="evenodd" clip-rule="evenodd" d="M151.019 223.544C155.613 219.79 158.069 215.978 156.869 213.814C155.164 210.737 146.714 212.16 137.997 216.992C136.338 217.912 134.789 218.888 133.38 219.888C125.45 221.789 119.555 228.926 119.555 237.439C119.555 247.406 127.635 255.486 137.602 255.486C141.393 255.486 144.91 254.318 147.814 252.321C148.642 251.964 149.48 251.566 150.32 251.127C157.368 247.443 161.827 242.321 160.279 239.687C159.607 238.543 157.913 238.057 155.635 238.174C155.636 238.153 155.636 238.133 155.637 238.112C155.638 238.089 155.639 238.066 155.64 238.042C158.406 235.454 159.716 233.012 158.83 231.505C158.298 230.6 157.044 230.15 155.305 230.117C157.297 227.953 158.147 225.98 157.389 224.691C156.599 223.347 154.215 223.006 151.019 223.544Z" fill="#FFF8F6"/>
<circle cx="280" cy="197" r="95.6981" stroke="#F3E2A7" stroke-width="0.603774"/>
</g>
<defs>
<filter id="filter0_f_181_38218" x="-70" y="-20" width="390" height="390" filterUnits="userSpaceOnUse" color-interpolation-filters="sRGB">
<feFlood flood-opacity="0" result="BackgroundImageFix"/>
<feBlend mode="normal" in="SourceGraphic" in2="BackgroundImageFix" result="shape"/>
<feGaussianBlur stdDeviation="10" result="effect1_foregroundBlur_181_38218"/>
</filter>
<clipPath id="clip0_181_38218">
<rect width="390" height="302" fill="white"/>
</clipPath>
</defs>
</svg>
