<svg width="392" height="434" viewBox="0 0 392 434" fill="none" xmlns="http://www.w3.org/2000/svg">
<path d="M31.4219 66.8672C31.4219 67.8503 31.5879 68.8171 31.9199 69.7676C32.2585 70.7116 32.763 71.5612 33.4336 72.3164C34.1042 73.0716 34.918 73.651 35.875 74.0547L34.5273 76.0078C33.5052 75.5781 32.6296 74.9466 31.9004 74.1133C31.1712 73.2799 30.5983 72.3066 30.1816 71.1934C29.7715 72.4043 29.1953 73.4688 28.4531 74.3867C27.7109 75.2982 26.832 75.9883 25.8164 76.457L24.3906 74.4844C25.3411 74.0612 26.1517 73.446 26.8223 72.6387C27.4993 71.8314 28.0072 70.9264 28.3457 69.9238C28.6908 68.9147 28.8633 67.8958 28.8633 66.8672V65.7734H25.0938V63.7422H35.1328V65.7734H31.4219V66.8672ZM39.4102 79.7969H36.8906V62.0234H39.4102V79.7969ZM56.793 75.5781H54.3125V72.2188H51.9102V70.2461H54.3125V68.4688H51.9102V66.457H54.3125V62.043H56.793V75.5781ZM51.7344 65.8711H41.8516V63.8984H45.6797V62.0039H48.1602V63.8984H51.7344V65.8711ZM46.8906 66.4961C47.6979 66.4961 48.4206 66.6458 49.0586 66.9453C49.6966 67.2383 50.1947 67.6517 50.5527 68.1855C50.9173 68.7129 51.1029 69.3151 51.1094 69.9922C51.1029 70.6693 50.9173 71.2715 50.5527 71.7988C50.1947 72.3262 49.6966 72.7363 49.0586 73.0293C48.4206 73.3223 47.6979 73.4688 46.8906 73.4688C46.0898 73.4688 45.3704 73.3223 44.7324 73.0293C44.1009 72.7363 43.6061 72.3262 43.248 71.7988C42.8965 71.265 42.724 70.6628 42.7305 69.9922C42.724 69.3216 42.8965 68.7194 43.248 68.1855C43.6061 67.6517 44.1009 67.2383 44.7324 66.9453C45.3704 66.6458 46.0898 66.4961 46.8906 66.4961ZM46.8906 68.4297C46.3307 68.4427 45.8815 68.5859 45.543 68.8594C45.2109 69.1263 45.0482 69.5039 45.0547 69.9922C45.0482 70.487 45.2109 70.8743 45.543 71.1543C45.8815 71.4342 46.3307 71.5742 46.8906 71.5742C47.444 71.5742 47.8932 71.4342 48.2383 71.1543C48.5833 70.8743 48.7591 70.487 48.7656 69.9922C48.7591 69.5039 48.5833 69.1263 48.2383 68.8594C47.8932 68.5859 47.444 68.4427 46.8906 68.4297ZM57.1641 79.4844H44.957V74.4258H47.4766V77.4922H57.1641V79.4844Z" fill="#6A5E2F"/>
<path d="M78.3164 62.1602V72.043H76.4805V62.1602H78.3164ZM66.7539 63.1758V69.3086C69.5762 69.2891 72.0566 69.084 74.6836 68.5273L74.9375 70.0703C72.0469 70.6562 69.4102 70.8711 66.3438 70.8711H64.8984V63.1758H66.7539ZM78.3164 72.8438V79.4258H66.8516V72.8438H78.3164ZM68.668 74.3086V77.9414H76.5V74.3086H68.668ZM84.2539 76.6523L82.6914 82.043H81.0312L82.0664 76.6523H84.2539Z" fill="black"/>
<path d="M30.3809 96.3848C30.3809 99.0215 32.1035 101.746 34.5293 102.783L33.6152 104.084C31.7607 103.267 30.2842 101.535 29.5547 99.4258C28.8252 101.676 27.3398 103.592 25.5117 104.488L24.5449 103.17C26.918 102.062 28.6758 99.0918 28.6934 96.3848V94.7148H25.0898V93.3262H33.9668V94.7148H30.3809V96.3848ZM37.623 91.7441V107.494H35.9531V91.7441H37.623ZM42.5273 92.8691V98.9336C44.6631 98.9336 46.9131 98.793 49.3477 98.2832L49.541 99.6543C46.9043 100.199 44.4785 100.34 42.1406 100.34H40.8574V92.8691H42.5273ZM52.5117 91.7617V96.3496H54.7969V97.7734H52.5117V103.117H50.8418V91.7617H52.5117ZM53.0566 105.807V107.16H42.5625V102.01H44.25V105.807H53.0566ZM68.8242 91.7617V103.398H67.1543V97.457H63.709V100.779H56.4492V92.7988H58.1191V95.4707H62.0566V92.7988H63.709V96.1035H67.1543V91.7617H68.8242ZM69.1758 105.807V107.16H58.541V102.256H60.2285V105.807H69.1758ZM58.1191 99.4258H62.0566V96.7539H58.1191V99.4258ZM81.1465 94.6445C81.1465 96.6484 82.5352 98.4766 84.9258 99.2324L84.1348 100.533C82.3418 99.9619 81.0322 98.7754 80.3379 97.2812C79.6523 99.0039 78.2725 100.366 76.3828 101.025L75.5215 99.6895C77.9824 98.8809 79.459 96.8418 79.4766 94.6621V94.2227H76.0137V92.8691H84.5391V94.2227H81.1465V94.6445ZM88.0195 91.7441V95.6465H90.3047V97.0176H88.0195V101.201H86.3496V91.7441H88.0195ZM82.9395 101.588C86.1914 101.588 88.1602 102.66 88.1602 104.506C88.1602 106.369 86.1914 107.477 82.9395 107.459C79.6523 107.477 77.6484 106.369 77.6484 104.506C77.6484 102.66 79.6523 101.588 82.9395 101.588ZM82.9395 102.906C80.6543 102.906 79.3008 103.486 79.3184 104.506C79.3008 105.561 80.6543 106.141 82.9395 106.141C85.207 106.141 86.5254 105.561 86.5254 104.506C86.5254 103.486 85.207 102.906 82.9395 102.906ZM105.615 104.119V105.49H91.2012V104.119H97.5117V100.375H99.1641V104.119H105.615ZM99.1992 93.9414C99.1992 96.4375 101.941 98.7754 104.982 99.2852L104.262 100.656C101.713 100.146 99.3662 98.5732 98.3203 96.4023C97.2832 98.5645 94.9629 100.164 92.4316 100.656L91.6934 99.2852C94.7168 98.7754 97.4414 96.4375 97.4414 93.9414V92.7461H99.1992V93.9414ZM119.502 96.3496V97.6855H108.656V92.3066H110.309V96.3496H119.502ZM121.154 99.6719V101.008H106.74V99.6719H121.154ZM119.607 105.754V107.125H108.533V102.502H110.203V105.754H119.607ZM134.039 92.957V93.9941C134.021 95.1191 134.021 96.543 133.67 98.4238L132.105 98.2656C132.422 96.5957 132.457 95.3389 132.457 94.3105H127.377V92.957H134.039ZM130.682 96.543V99.6895C132.053 99.6367 133.441 99.5488 134.637 99.4082L134.725 100.604C132.158 101.061 128.836 101.131 126.709 101.131L126.551 99.7773C127.289 99.7773 128.177 99.7686 129.135 99.7422V96.543H130.682ZM140.209 91.7617V103.68H138.592V98.0371H136.922V103.258H135.357V92.0254H136.922V96.6484H138.592V91.7617H140.209ZM140.613 105.807V107.16H129.311V102.449H131.016V105.807H140.613ZM154.641 91.7441V95.2246H156.926V96.6133H154.641V99.8477H152.971V91.7441H154.641ZM145.482 101.254V105.771C146.405 105.736 147.469 105.613 148.471 105.279L148.717 106.598C147.258 107.072 145.834 107.16 144.656 107.16H143.848V101.254H145.482ZM156.117 101.482V102.713H148.172V101.482H151.354V100.164H152.988V101.482H156.117ZM152.145 103.223C153.867 103.223 155.115 104.066 155.115 105.367C155.115 106.65 153.867 107.477 152.145 107.494C150.404 107.477 149.156 106.65 149.174 105.367C149.156 104.066 150.404 103.223 152.145 103.223ZM152.145 104.365C151.301 104.365 150.668 104.752 150.668 105.367C150.668 105.965 151.301 106.334 152.145 106.334C152.971 106.334 153.604 105.965 153.604 105.367C153.604 104.752 152.971 104.365 152.145 104.365ZM147.785 94.8027C147.785 96.3672 149.297 97.791 151.652 98.3359L150.949 99.6191C149.112 99.1885 147.732 98.2217 147.012 96.9473C146.317 98.4502 144.885 99.5752 142.934 100.076L142.195 98.7578C144.621 98.1777 146.133 96.6133 146.133 94.8027V94.627H142.705V93.291H146.133V91.6914H147.803V93.291H151.213V94.627H147.785V94.8027ZM164.994 92.6934C168.299 92.6934 170.812 94.4336 170.812 97.0879C170.812 99.7422 168.299 101.5 164.994 101.482C161.689 101.5 159.193 99.7422 159.193 97.0879C159.193 94.4336 161.689 92.6934 164.994 92.6934ZM164.994 94.0469C162.586 94.0293 160.775 95.2598 160.793 97.0879C160.775 98.9336 162.586 100.111 164.994 100.111C167.402 100.111 169.195 98.9336 169.195 97.0879C169.195 95.2598 167.402 94.0293 164.994 94.0469ZM172.236 104.066V105.455H157.822V104.066H172.236ZM186.51 91.7441V100.92H184.84V97.9492H181.869V96.5957H184.84V94.8906H181.869V93.5371H184.84V91.7441H186.51ZM178.916 93.9062C178.916 96.1211 180.322 98.2832 182.695 99.1621L181.746 100.48C180.05 99.8037 178.784 98.4766 178.107 96.8242C177.422 98.5996 176.112 100.015 174.293 100.727L173.361 99.4082C175.822 98.4941 177.246 96.3145 177.264 93.9062V92.3242H178.916V93.9062ZM178.969 102.133C178.969 103.495 179.637 104.928 181.078 105.807C182.52 104.857 183.205 103.328 183.205 102.133V101.482H184.84V102.133C184.84 103.768 185.912 105.367 188.004 106.035L187.143 107.283C185.596 106.729 184.541 105.675 183.996 104.365C183.504 105.648 182.555 106.817 181.096 107.424C179.602 106.853 178.644 105.728 178.16 104.436C177.589 105.675 176.552 106.729 175.066 107.283L174.258 106.035C176.262 105.332 177.352 103.662 177.369 102.133V101.482H178.969V102.133ZM203.648 97.9316V99.3027H201.205V107.477H199.535V91.7441H201.205V97.9316H203.648ZM191.186 93.2734V102.133C193.383 102.133 195.677 101.948 198.182 101.43L198.375 102.836C195.686 103.381 193.189 103.521 190.834 103.521H189.533V93.2734H191.186ZM218.906 104.137V105.525H204.492V104.137H207.938V100.023C206.646 99.3115 205.863 98.1777 205.863 96.7715C205.863 94.293 208.289 92.6582 211.664 92.6582C215.057 92.6582 217.482 94.293 217.482 96.7715C217.482 98.1602 216.727 99.2764 215.461 99.9883V104.137H218.906ZM211.664 93.9941C209.186 93.9941 207.48 95.0664 207.48 96.7715C207.48 98.459 209.186 99.5664 211.664 99.5664C214.125 99.5664 215.865 98.459 215.865 96.7715C215.865 95.0664 214.125 93.9941 211.664 93.9941ZM209.59 104.137H213.773V100.621C213.132 100.788 212.42 100.867 211.664 100.867C210.926 100.867 210.223 100.788 209.59 100.639V104.137ZM222.633 102.221C222.65 99.918 223.336 99.2148 224.496 98.4941C225.234 98.0371 225.797 97.4043 225.797 96.4727C225.797 95.3652 224.953 94.6797 223.898 94.6797C222.949 94.6797 222.035 95.2598 221.947 96.5605H220.049C220.119 94.3281 221.807 93.0977 223.898 93.0977C226.184 93.0977 227.713 94.4688 227.713 96.4727C227.713 97.8789 227.045 98.8281 225.92 99.5137C224.865 100.146 224.461 100.797 224.426 102.221V102.326H222.633V102.221ZM223.6 106.123C222.914 106.123 222.334 105.561 222.352 104.875C222.334 104.189 222.914 103.627 223.6 103.627C224.268 103.627 224.848 104.189 224.848 104.875C224.848 105.561 224.268 106.123 223.6 106.123ZM38.9941 129.137V130.525H24.5801V129.137H30.9258V125.498H26.2324V118.01H37.2715V125.498H32.5781V129.137H38.9941ZM27.8496 119.346V124.18H35.6367V119.346H27.8496ZM44.3555 117.922C46.7109 117.922 48.3809 120.066 48.3984 123.441C48.3809 126.834 46.7109 128.979 44.3555 128.979C42 128.979 40.3125 126.834 40.3301 123.441C40.3125 120.066 42 117.922 44.3555 117.922ZM44.3555 119.416C42.9141 119.416 41.9297 120.963 41.9297 123.441C41.9297 125.938 42.9141 127.484 44.3555 127.484C45.8145 127.484 46.7988 125.938 46.7988 123.441C46.7988 120.963 45.8145 119.416 44.3555 119.416ZM52.4062 116.744V122.914H54.9375V124.32H52.4062V132.494H50.7363V116.744H52.4062ZM68.4551 121.824V123.16H57.4863V117.5H68.2969V118.854H59.1562V121.824H68.4551ZM70.0723 124.707V126.061H63.9023V129.031H62.2324V126.061H55.6934V124.707H70.0723ZM68.5605 130.807V132.16H57.4863V127.66H59.1562V130.807H68.5605ZM113.93 117.008C117.48 117.008 119.555 117.957 119.555 119.715C119.555 121.473 117.48 122.439 113.93 122.439C110.379 122.439 108.305 121.473 108.305 119.715C108.305 117.957 110.379 117.008 113.93 117.008ZM113.93 118.238C111.416 118.238 110.027 118.783 110.045 119.715C110.027 120.682 111.416 121.191 113.93 121.191C116.443 121.191 117.832 120.682 117.832 119.715C117.832 118.783 116.443 118.238 113.93 118.238ZM121.119 123.406V124.742H106.758V123.406H121.119ZM119.309 125.955V129.646H110.133V131.053H119.748V132.336H108.498V128.434H117.656V127.203H108.48V125.955H119.309ZM139.102 116.762V121.438H141.352V122.809H139.102V127.361H137.432V116.762H139.102ZM126.604 125.604C127.825 125.604 129.24 125.604 130.717 125.551V124.496C128.924 124.312 127.781 123.468 127.799 122.193C127.781 120.752 129.275 119.855 131.543 119.873C133.793 119.855 135.287 120.752 135.287 122.193C135.287 123.459 134.162 124.303 132.387 124.496V125.498C133.793 125.428 135.217 125.313 136.535 125.129L136.676 126.324C133.283 126.922 129.557 126.939 126.779 126.939L126.604 125.604ZM139.102 128.1V132.494H137.432V129.4H128.572V128.1H139.102ZM136.096 118.098V119.346H127.008V118.098H130.717V116.621H132.387V118.098H136.096ZM131.543 121.016C130.189 120.998 129.381 121.438 129.381 122.193C129.381 122.932 130.189 123.406 131.543 123.406C132.879 123.406 133.688 122.932 133.688 122.193C133.688 121.438 132.879 120.998 131.543 121.016ZM155.326 116.762V128.205H153.656V116.762H155.326ZM155.801 130.807V132.16H145.025V127.045H146.713V130.807H155.801ZM146.783 117.816C149.156 117.816 150.967 119.434 150.967 121.719C150.967 124.039 149.156 125.639 146.783 125.639C144.41 125.639 142.582 124.039 142.582 121.719C142.582 119.434 144.41 117.816 146.783 117.816ZM146.783 119.275C145.307 119.275 144.217 120.277 144.217 121.719C144.217 123.195 145.307 124.18 146.783 124.18C148.225 124.18 149.332 123.195 149.332 121.719C149.332 120.277 148.225 119.275 146.783 119.275ZM165.609 119.346V120.699H157.787V119.346H160.881V117.201H162.533V119.346H165.609ZM161.707 121.648C163.711 121.648 165.117 123.143 165.135 125.27C165.117 127.414 163.711 128.926 161.707 128.926C159.738 128.926 158.279 127.414 158.297 125.27C158.279 123.143 159.738 121.648 161.707 121.648ZM161.707 123.037C160.564 123.037 159.773 123.969 159.773 125.27C159.773 126.605 160.564 127.502 161.707 127.502C162.832 127.502 163.658 126.605 163.658 125.27C163.658 123.969 162.832 123.037 161.707 123.037ZM171.305 116.744V132.494H169.723V124.672H167.912V131.756H166.33V117.096H167.912V123.301H169.723V116.744H171.305ZM187.793 129.154V130.543H173.379V129.154H179.725V125.92H175.031V117.816H176.701V120.523H184.436V117.816H186.088V125.92H181.377V129.154H187.793ZM176.701 124.566H184.436V121.877H176.701V124.566ZM193.154 117.922C195.51 117.922 197.18 120.066 197.197 123.441C197.18 126.834 195.51 128.979 193.154 128.979C190.799 128.979 189.111 126.834 189.129 123.441C189.111 120.066 190.799 117.922 193.154 117.922ZM193.154 119.416C191.713 119.416 190.729 120.963 190.729 123.441C190.729 125.938 191.713 127.484 193.154 127.484C194.613 127.484 195.598 125.938 195.598 123.441C195.598 120.963 194.613 119.416 193.154 119.416ZM201.205 116.744V122.914H203.736V124.32H201.205V132.494H199.535V116.744H201.205ZM218.906 129.137V130.525H204.492V129.137H207.938V125.023C206.646 124.312 205.863 123.178 205.863 121.771C205.863 119.293 208.289 117.658 211.664 117.658C215.057 117.658 217.482 119.293 217.482 121.771C217.482 123.16 216.727 124.276 215.461 124.988V129.137H218.906ZM211.664 118.994C209.186 118.994 207.48 120.066 207.48 121.771C207.48 123.459 209.186 124.566 211.664 124.566C214.125 124.566 215.865 123.459 215.865 121.771C215.865 120.066 214.125 118.994 211.664 118.994ZM209.59 129.137H213.773V125.621C213.132 125.788 212.42 125.867 211.664 125.867C210.926 125.867 210.223 125.788 209.59 125.639V129.137ZM221.842 131.123C221.156 131.123 220.576 130.561 220.594 129.875C220.576 129.189 221.156 128.627 221.842 128.627C222.51 128.627 223.09 129.189 223.09 129.875C223.09 130.561 222.51 131.123 221.842 131.123Z" fill="black"/>
<path d="M84.3984 118.133V119.504H78.2637V122.545H83.8008V123.881H78.2637V127.414C81.0234 127.405 83.0098 127.291 85.3477 126.922L85.5234 128.275C83.0273 128.68 80.8652 128.768 77.8945 128.768H76.6113V118.133H84.3984ZM88.7402 116.744V132.494H87.0527V116.744H88.7402ZM104.684 116.762V127.396H103.102V116.762H104.684ZM101.52 117.025V125.99H99.9375V122.633H97.1777C96.2461 124.417 94.6113 125.885 92.0801 126.975L91.2715 125.762C93.4512 124.848 94.8574 123.661 95.6836 122.246L91.5527 122.686L91.3066 121.314L96.2285 121.033C96.4043 120.506 96.5186 119.952 96.5801 119.381H92.0273V118.027H98.1973C98.1973 119.188 98.0566 120.277 97.7402 121.279H99.9375V117.025H101.52ZM100.148 126.939C100.148 128.926 102.521 130.684 105.492 131.123L104.842 132.424C102.407 132.02 100.315 130.824 99.3398 129.137C98.3467 130.824 96.2549 132.02 93.8203 132.424L93.1523 131.123C96.123 130.684 98.4961 128.926 98.4961 126.939V126.482H100.148V126.939Z" fill="#6A5E2F"/>
</svg>
