<svg width="461" height="390" viewBox="0 0 461 390" fill="none" xmlns="http://www.w3.org/2000/svg">
<g opacity="0.22" filter="url(#filter0_f_567_52734)">
<circle cx="195" cy="195" r="175" fill="white"/>
</g>
<circle cx="154" cy="182" r="31.5" stroke="#F3E2A7"/>
<path d="M460 66.877C430.01 104.033 354.37 175.692 291.735 165.076C213.441 151.806 254.048 127.123 276.076 133.758C298.105 140.393 288.549 175.427 236.531 199.844C194.915 219.377 101.837 227.408 63 229" stroke="#77574D" stroke-width="1.06161"/>
<path fill-rule="evenodd" clip-rule="evenodd" d="M248.634 265.103C245.806 256.625 240.847 246.703 234.146 236.767C218.711 213.884 199.876 199.598 192.078 204.858C184.279 210.118 190.469 232.933 205.904 255.817C213.533 267.126 221.992 276.336 229.539 282.124C232.775 292.573 239.79 299.608 245.813 298.107C252.235 296.505 255.097 285.801 252.204 274.198C251.361 270.819 250.124 267.736 248.634 265.103Z" fill="#F3E2A7"/>
<path d="M191.312 204.886C169.018 212.742 152.828 201.613 147.52 195.066C119.069 202.922 118.858 270.956 117 299H238C236.726 252.714 205.113 213.645 191.312 204.886Z" fill="#6A5E2F"/>
<circle cx="130" cy="133" r="52.5" stroke="#F3E2A7"/>
<path fill-rule="evenodd" clip-rule="evenodd" d="M242.454 302.553C251.982 302.553 259.705 298.038 259.705 292.468C259.705 286.898 251.982 282.383 242.454 282.383C235.073 282.383 228.775 285.093 226.312 288.903C225.705 288.805 225.067 288.752 224.408 288.752C220.45 288.752 217.242 290.653 217.242 292.998C217.242 295.344 220.45 297.245 224.408 297.245C225.323 297.245 226.198 297.143 227.003 296.958C229.828 300.275 235.686 302.553 242.454 302.553Z" fill="#FFF8F6"/>
<circle cx="184.122" cy="159.096" r="41.1374" fill="#FFF8F6"/>
<path d="M158.52 164.559L147.589 178.08L147.535 177.963C145.121 172.751 140.487 162.742 141.806 153.523C144.287 136.175 160.434 113.621 190.64 118.224C214.804 121.906 223.152 141.546 224.398 150.751C222.864 154.011 218.127 160.187 211.453 158.806C204.779 157.425 204.645 149.217 205.412 145.285C199.946 147.875 188.382 152.823 185.85 151.902C183.319 150.981 185.946 147.107 187.576 145.285C176.99 155.642 167.439 153.244 163.987 150.751C161.685 146.148 155.356 139.704 148.452 150.751C141.548 161.798 152.288 164.559 158.52 164.559Z" fill="#77574D"/>
<ellipse cx="192.724" cy="166.41" rx="2.68898" ry="4.18286" transform="rotate(25 192.724 166.41)" fill="#77574D"/>
<ellipse cx="214.033" cy="171.791" rx="2.68898" ry="4.18286" transform="rotate(25 214.033 171.791)" fill="#77574D"/>
<path d="M184.002 178.205C182.322 185.636 183.525 199.066 201.784 193.333" stroke="#77574D" stroke-width="0.530805"/>
<path d="M205.772 164.139L211.518 187.627H200.026L205.772 164.139Z" fill="#FFDBD0"/>
<path d="M405.962 148H342C360.684 178.362 354.562 208.423 349.166 219.659H412.597C423.425 197.577 412.686 162.686 405.962 148Z" fill="#F3E2A7"/>
<path d="M300 173.213C321.232 156.015 334.148 111.905 337.953 92H400.853C406.586 121.513 380.505 160.739 368.474 176.663L300 173.213Z" fill="#FFF8F6"/>
<path fill-rule="evenodd" clip-rule="evenodd" d="M153.722 263.049C153.933 262.463 154.14 261.873 154.345 261.28C164.303 232.36 162.825 205.627 151.045 201.571C139.265 197.515 121.642 217.671 111.685 246.591C101.827 275.218 103.175 301.701 114.629 306.169C123.935 312.274 143.082 313.004 163.566 307.13C190.187 299.496 208.984 283.599 205.55 271.623C202.228 260.036 179.316 256.364 153.722 263.049Z" fill="#F3E2A7"/>
<ellipse cx="193.141" cy="257.386" rx="14.5197" ry="6.36966" transform="rotate(-48 193.141 257.386)" fill="#FFF8F6"/>
<rect x="236.344" y="225.832" width="7" height="48" rx="2" transform="rotate(51 236.344 225.832)" fill="#77574D"/>
<path fill-rule="evenodd" clip-rule="evenodd" d="M214.152 259.755C219.38 256.948 222.518 253.673 221.754 251.32C220.667 247.974 212.101 247.759 202.621 250.839C200.817 251.425 199.11 252.088 197.536 252.801C189.388 253.153 182.24 259.034 180.615 267.392C178.713 277.176 185.103 286.649 194.887 288.551C198.611 289.275 202.29 288.797 205.524 287.389C206.402 287.197 207.298 286.966 208.203 286.696C215.825 284.425 221.179 280.248 220.162 277.367C219.721 276.116 218.151 275.315 215.893 274.995C215.903 274.953 215.912 274.91 215.922 274.867C219.131 272.855 220.882 270.708 220.3 269.06C219.951 268.071 218.806 267.389 217.107 267.025C219.475 265.281 220.685 263.507 220.187 262.097C219.668 260.627 217.393 259.838 214.152 259.755Z" fill="#FFF8F6"/>
<circle cx="350" cy="217" r="95.6981" stroke="#F3E2A7" stroke-width="0.603774"/>
<path fill-rule="evenodd" clip-rule="evenodd" d="M286.631 235.566C286.196 237.452 285.521 239.123 284.744 240.393C286.084 240.338 287.632 240.485 289.243 240.857C293.709 241.888 296.975 244.262 296.536 246.16C296.098 248.058 292.123 248.761 287.657 247.73C286.194 247.392 284.859 246.91 283.742 246.348C283.728 247.509 283.575 248.793 283.268 250.12C282.237 254.586 279.863 257.851 277.965 257.413C276.067 256.975 275.364 252.999 276.395 248.534C276.724 247.107 277.191 245.802 277.735 244.702C276.279 244.825 274.531 244.694 272.7 244.271C268.234 243.24 264.969 240.866 265.407 238.968C265.845 237.07 269.82 236.367 274.286 237.398C276.304 237.864 278.076 238.603 279.373 239.45C279.18 237.913 279.292 235.996 279.758 233.979C280.789 229.513 283.164 226.248 285.062 226.686C286.96 227.124 287.663 231.1 286.631 235.566Z" fill="#F3E2A7"/>
<path fill-rule="evenodd" clip-rule="evenodd" d="M126.794 106.397C127.575 108.543 127.982 110.631 128.028 112.387C129.32 111.472 130.945 110.623 132.778 109.956C137.861 108.106 142.619 108.357 143.406 110.517C144.192 112.678 140.709 115.929 135.626 117.779C133.961 118.385 132.332 118.765 130.866 118.927C131.598 120.085 132.272 121.455 132.821 122.966C134.672 128.049 134.42 132.807 132.26 133.593C130.099 134.379 126.848 130.896 124.998 125.813C124.407 124.19 124.031 122.599 123.862 121.161C122.5 122.218 120.686 123.212 118.602 123.97C113.519 125.82 108.761 125.569 107.975 123.409C107.188 121.248 110.672 117.997 115.755 116.147C118.05 115.312 120.28 114.905 122.107 114.909C120.929 113.512 119.807 111.541 118.971 109.245C117.121 104.162 117.372 99.4036 119.533 98.6173C121.693 97.831 124.944 101.314 126.794 106.397Z" fill="#D6C68D"/>
<defs>
<filter id="filter0_f_567_52734" x="0" y="0" width="390" height="390" filterUnits="userSpaceOnUse" color-interpolation-filters="sRGB">
<feFlood flood-opacity="0" result="BackgroundImageFix"/>
<feBlend mode="normal" in="SourceGraphic" in2="BackgroundImageFix" result="shape"/>
<feGaussianBlur stdDeviation="10" result="effect1_foregroundBlur_567_52734"/>
</filter>
</defs>
</svg>
