<svg width="29" height="29" viewBox="0 0 29 29" fill="none" xmlns="http://www.w3.org/2000/svg">
<g id="dots-horizontal">
<g id="Icon">
<path d="M14.4987 15.7077C15.166 15.7077 15.707 15.1667 15.707 14.4993C15.707 13.832 15.166 13.291 14.4987 13.291C13.8314 13.291 13.2904 13.832 13.2904 14.4993C13.2904 15.1667 13.8314 15.7077 14.4987 15.7077Z" stroke="black" stroke-width="2" stroke-linecap="round" stroke-linejoin="round"/>
<path d="M22.957 15.7077C23.6244 15.7077 24.1654 15.1667 24.1654 14.4993C24.1654 13.832 23.6244 13.291 22.957 13.291C22.2897 13.291 21.7487 13.832 21.7487 14.4993C21.7487 15.1667 22.2897 15.7077 22.957 15.7077Z" stroke="black" stroke-width="2" stroke-linecap="round" stroke-linejoin="round"/>
<path d="M6.04036 15.7077C6.70771 15.7077 7.2487 15.1667 7.2487 14.4993C7.2487 13.832 6.70771 13.291 6.04036 13.291C5.37302 13.291 4.83203 13.832 4.83203 14.4993C4.83203 15.1667 5.37302 15.7077 6.04036 15.7077Z" stroke="black" stroke-width="2" stroke-linecap="round" stroke-linejoin="round"/>
</g>
</g>
</svg>
