<svg width="390" height="34" viewBox="0 0 390 34" fill="none" xmlns="http://www.w3.org/2000/svg">
<path d="M38.9062 4.95312C39.9219 4.95312 40.8359 5.11458 41.6484 5.4375C42.4609 5.76042 43.099 6.21875 43.5625 6.8125C44.026 7.40104 44.2604 8.07812 44.2656 8.84375C44.2604 9.54167 44.0729 10.1667 43.7031 10.7188C43.3333 11.2708 42.8177 11.7188 42.1562 12.0625C41.5 12.401 40.7448 12.6198 39.8906 12.7188V15.1406H45.4375V16.7812H32.4219V15.1406H37.9062V12.7109C37.0573 12.6172 36.3047 12.3984 35.6484 12.0547C34.9922 11.7109 34.4792 11.2656 34.1094 10.7188C33.7448 10.1667 33.5625 9.54167 33.5625 8.84375C33.5625 8.07812 33.7917 7.40104 34.25 6.8125C34.7135 6.21875 35.3516 5.76042 36.1641 5.4375C36.9766 5.11458 37.8906 4.95312 38.9062 4.95312ZM38.9062 6.54688C38.2448 6.54688 37.6589 6.64062 37.1484 6.82812C36.638 7.01042 36.2396 7.27604 35.9531 7.625C35.6719 7.97396 35.5312 8.38021 35.5312 8.84375C35.5312 9.33333 35.6719 9.75521 35.9531 10.1094C36.2396 10.4583 36.6354 10.7266 37.1406 10.9141C37.651 11.0964 38.2396 11.1875 38.9062 11.1875C39.5781 11.1875 40.1667 11.0964 40.6719 10.9141C41.1823 10.7318 41.5781 10.4635 41.8594 10.1094C42.1458 9.75521 42.2917 9.33333 42.2969 8.84375C42.2917 8.375 42.1458 7.96875 41.8594 7.625C41.5781 7.27604 41.1823 7.01042 40.6719 6.82812C40.1615 6.64062 39.5729 6.54688 38.9062 6.54688ZM57.75 8.67188H47.8594V4.39062H49.8438V7.09375H57.75V8.67188ZM59.25 11.2031H46.2344V9.625H59.25V11.2031ZM57.6875 15.8438H49.75V16.75H58.125V18.2812H47.75V14.4062H55.7031V13.5938H47.7188V12.0625H57.6875V15.8438Z" fill="#1C1B1C"/>
<path d="M117.281 15.4688V16.4844H104.562V15.4688H110.281V12.4688H106.062V5.35938H107.297V7.875H114.516V5.35938H115.719V12.4688H111.484V15.4688H117.281ZM107.297 11.4688H114.516V8.875H107.297V11.4688ZM126.094 5.45312V6.1875C126.078 7.09375 126.078 8.48438 125.734 10.2969L124.5 10.2031C124.836 8.53906 124.867 7.35938 124.891 6.48438H119.172V5.45312H126.094ZM122.516 8.53125V11.5156C124.055 11.4531 125.648 11.3438 127.094 11.1406L127.172 12.0469C124.266 12.5469 120.906 12.6094 118.438 12.6094L118.312 11.5938C119.211 11.5859 120.227 11.5781 121.297 11.5469V8.53125H122.516ZM129.281 4.375V8.90625H131.312V9.95312H129.281V14.8281H128.031V4.375H129.281ZM129.734 16.9375V17.9688H120.453V13.8906H121.688V16.9375H129.734ZM143.078 4.375V8.07812H145.172V9.125H143.078V12.75H141.859V4.375H143.078ZM143.078 13.5469V18.0781H134.312V13.5469H143.078ZM135.516 14.5312V17.0781H141.859V14.5312H135.516ZM140.531 5.85938V6.875H132.25V5.85938H135.781V4.26562H137V5.85938H140.531ZM136.391 7.5625C138.391 7.5625 139.719 8.54688 139.734 10.0312C139.719 11.5469 138.391 12.5156 136.391 12.5156C134.375 12.5156 133.031 11.5469 133.047 10.0312C133.031 8.54688 134.375 7.5625 136.391 7.5625ZM136.391 8.51562C135.078 8.51562 134.203 9.125 134.219 10.0312C134.203 10.9844 135.078 11.5625 136.391 11.5781C137.688 11.5625 138.562 10.9844 138.578 10.0312C138.562 9.125 137.688 8.51562 136.391 8.51562Z" fill="#C9C6C5"/>
<line x1="25" y1="31.8488" x2="67" y2="31.8488" stroke="#020617" stroke-width="2.30242"/>
<line y1="33.4995" x2="391" y2="33.4995" stroke="#E5E1E1" stroke-width="1.00105"/>
</svg>
