<svg width="389" height="25" viewBox="0 0 389 25" fill="none" xmlns="http://www.w3.org/2000/svg">
<path d="M55.9688 14.7031C58.8281 14.7031 60.5469 15.6406 60.5469 17.2656C60.5469 18.9062 58.8281 19.8438 55.9688 19.8594C53.1094 19.8438 51.3594 18.9062 51.3594 17.2656C51.3594 15.6406 53.1094 14.7031 55.9688 14.7031ZM55.9688 15.6719C53.875 15.6875 52.5781 16.2656 52.5938 17.2656C52.5781 18.2656 53.875 18.8594 55.9688 18.8594C58.0781 18.8594 59.3594 18.2656 59.3594 17.2656C59.3594 16.2656 58.0781 15.6875 55.9688 15.6719ZM60.4219 5.96875V9.46875H62.5156V10.5156H60.4219V14.3281H59.2031V5.96875H60.4219ZM51.3594 6.84375V8.96875H55.4062V6.84375H56.625V13.25H50.1562V6.84375H51.3594ZM51.3594 12.25H55.4062V9.9375H51.3594V12.25ZM76.0938 13.0781V14.0938H70.4375V16.9375H69.2188V14.0938H63.375V13.0781H76.0938ZM74.4375 6.65625V11.4844H65.0312V6.65625H74.4375ZM66.2344 7.625V10.5H73.2188V7.625H66.2344ZM74.6719 18.5312V19.5625H65V15.5625H66.2344V18.5312H74.6719ZM93.1406 5.96875V19.8594H91.9531V5.96875H93.1406ZM90.375 6.26562V19.1562H89.2031V14.5938H86.9844C86.5 15.9844 85.5781 16.7969 84.3906 16.7969C82.5781 16.7969 81.4062 14.9219 81.4062 11.9688C81.4062 9.01562 82.5781 7.14062 84.3906 7.14062C85.5781 7.14062 86.5 7.95312 86.9844 9.34375H89.2031V6.26562H90.375ZM84.3906 8.29688C83.25 8.29688 82.5469 9.70312 82.5469 11.9688C82.5469 14.2188 83.25 15.6406 84.3906 15.625C85.5156 15.6406 86.25 14.2188 86.25 11.9688C86.25 9.70312 85.5156 8.29688 84.3906 8.29688ZM87.25 10.3594C87.3438 10.8516 87.3906 11.3906 87.3906 11.9688C87.3906 12.5391 87.3438 13.0781 87.2656 13.5625H89.2031V10.3594H87.25ZM106.578 5.96875V14.25H105.344V10.6094H102.547V9.59375H105.344V5.96875H106.578ZM101.969 14.6875C104.859 14.6875 106.625 15.625 106.625 17.2656C106.625 18.9062 104.859 19.8438 101.969 19.8594C99.0781 19.8438 97.3125 18.9062 97.3125 17.2656C97.3125 15.625 99.0781 14.6875 101.969 14.6875ZM101.969 15.6406C99.8438 15.6406 98.5156 16.25 98.5312 17.2656C98.5156 18.2656 99.8438 18.875 101.969 18.875C104.094 18.875 105.406 18.2656 105.406 17.2656C105.406 16.25 104.094 15.6406 101.969 15.6406ZM99.8906 8.51562C99.8906 10.3281 101.281 12.0469 103.312 12.75L102.672 13.7344C101.109 13.1719 99.8984 12.0078 99.3125 10.5625C98.7031 12.1953 97.4141 13.5 95.7656 14.125L95.125 13.1406C97.1875 12.3906 98.6562 10.5156 98.6562 8.53125V8.01562H95.5156V6.98438H103V8.01562H99.8906V8.51562ZM120.562 7.23438V8.26562H115.016V11.1406H120.062V12.1406H115.016V15.5C117.609 15.5 119.391 15.3984 121.516 15.0469L121.641 16.0625C119.453 16.4219 117.578 16.5 114.906 16.5156H113.797V7.23438H120.562ZM124.391 5.96875V19.8594H123.156V5.96875H124.391ZM138.562 5.98438V15.4219H137.391V5.98438H138.562ZM135.828 6.23438V14.1719H134.656V11.0625H132.062C131.219 12.6719 129.742 14.0078 127.469 14.9844L126.875 14.0781C128.93 13.2109 130.258 12.0625 131 10.6875L127.047 11.1094L126.844 10.0781L131.391 9.79688C131.562 9.27344 131.68 8.72656 131.734 8.15625H127.516V7.14062H132.938C132.938 8.17188 132.797 9.14062 132.5 10.0469H134.656V6.23438H135.828ZM134.516 15.0625C134.516 16.9219 136.891 18.4688 139.328 18.8438L138.828 19.7969C136.742 19.4297 134.758 18.3438 133.906 16.7656C133.055 18.3438 131.07 19.4297 128.984 19.7969L128.5 18.8438C130.922 18.4688 133.297 16.9219 133.297 15.0625V14.5938H134.516V15.0625ZM155.422 5.98438V10.1875H157.5V11.2188H155.422V15.2969H154.188V5.98438H155.422ZM144.516 13.875C145.625 13.875 146.922 13.875 148.281 13.8281V12.8125C146.664 12.6719 145.625 11.9141 145.625 10.7656C145.625 9.5 146.922 8.71875 148.875 8.71875C150.844 8.71875 152.125 9.5 152.141 10.7656C152.125 11.9062 151.109 12.6641 149.5 12.8125V13.7812C150.797 13.7188 152.109 13.6172 153.328 13.4375L153.438 14.3281C150.422 14.8594 147.094 14.875 144.656 14.875L144.516 13.875ZM155.422 15.9844V19.8594H154.188V16.9688H146.219V15.9844H155.422ZM152.906 7.25V8.1875H144.859V7.25H148.281V5.85938H149.5V7.25H152.906ZM148.875 9.59375C147.594 9.57812 146.797 10.0312 146.797 10.7656C146.797 11.4844 147.594 11.9844 148.875 11.9688C150.156 11.9844 150.969 11.4844 150.969 10.7656C150.969 10.0312 150.156 9.57812 148.875 9.59375ZM169.875 5.98438V16.1406H168.656V5.98438H169.875ZM170.312 18.5312V19.5625H160.906V15.1094H162.125V18.5312H170.312ZM162.375 6.95312C164.453 6.95312 166.016 8.35938 166.016 10.3594C166.016 12.3906 164.453 13.7812 162.375 13.7812C160.297 13.7812 158.734 12.3906 158.734 10.3594C158.734 8.35938 160.297 6.95312 162.375 6.95312ZM162.375 8.03125C160.969 8.03125 159.922 9 159.938 10.3594C159.922 11.75 160.969 12.7031 162.375 12.7031C163.75 12.7031 164.812 11.75 164.812 10.3594C164.812 9 163.75 8.03125 162.375 8.03125ZM182.984 5.96875V11.7031H185.312V12.7188H182.984V19.8594H181.766V5.96875H182.984ZM180.422 8.20312V9.21875H172.156V8.20312H175.734V6.14062H176.953V8.20312H180.422ZM176.359 10.375C178.328 10.375 179.75 11.6875 179.766 13.5625C179.75 15.4375 178.328 16.75 176.359 16.75C174.375 16.75 172.938 15.4375 172.953 13.5625C172.938 11.6875 174.375 10.375 176.359 10.375ZM176.359 11.4062C175.062 11.4062 174.109 12.3125 174.125 13.5625C174.109 14.8281 175.062 15.7188 176.359 15.7031C177.641 15.7188 178.578 14.8281 178.594 13.5625C178.578 12.3125 177.641 11.4062 176.359 11.4062ZM197.547 5.96875V19.8594H196.312V5.96875H197.547ZM193.438 7.48438C193.422 11.4844 191.562 15.0156 186.906 17.25L186.234 16.25C189.992 14.4688 191.906 11.8047 192.188 8.48438H186.875V7.48438H193.438Z" fill="#221B00"/>
<path d="M31.5 9.59375V8.84375M31.5 12.9688V12.2188M31.5 16.3438V15.5938M27.9 6.59375H38.1C38.9401 6.59375 39.3601 6.59375 39.681 6.75724C39.9632 6.90105 40.1927 7.13052 40.3365 7.41276C40.5 7.73363 40.5 8.15367 40.5 8.99375V9.96875C39.0503 9.96875 37.875 11.144 37.875 12.5938C37.875 14.0435 39.0503 15.2188 40.5 15.2188V16.1938C40.5 17.0338 40.5 17.4539 40.3365 17.7747C40.1927 18.057 39.9632 18.2864 39.681 18.4303C39.3601 18.5938 38.9401 18.5938 38.1 18.5938H27.9C27.0599 18.5938 26.6399 18.5938 26.319 18.4303C26.0368 18.2864 25.8073 18.057 25.6635 17.7747C25.5 17.4539 25.5 17.0338 25.5 16.1938V15.2188C26.9497 15.2188 28.125 14.0435 28.125 12.5938C28.125 11.144 26.9497 9.96875 25.5 9.96875V8.99375C25.5 8.15367 25.5 7.73363 25.6635 7.41276C25.8073 7.13052 26.0368 6.90105 26.319 6.75724C26.6399 6.59375 27.0599 6.59375 27.9 6.59375Z" stroke="#53433F" stroke-width="1.5" stroke-linecap="round" stroke-linejoin="round"/>
</svg>
