<svg width="389" height="24" viewBox="0 0 389 24" fill="none" xmlns="http://www.w3.org/2000/svg">
<path d="M32.625 3.80859V5.80078H29.0898C29.1094 7.87109 30.3496 9.87305 33.1914 10.7031L32 12.6562C30.0371 12.0605 28.6797 10.8691 27.8984 9.33594C27.1074 11.1328 25.6621 12.5586 23.5234 13.2617L22.2539 11.2891C25.2031 10.3613 26.5312 8.05664 26.5703 5.80078H22.9375V3.80859H32.625ZM36.6289 2.61719V6.73828H39.0312V8.76953H36.6289V13.1641H34.1289V2.61719H36.6289ZM30.8086 13.5156C34.5 13.4961 36.8047 14.7656 36.8047 16.9336C36.8047 19.1016 34.5 20.3906 30.8086 20.3906C27.0391 20.3906 24.7148 19.1016 24.7148 16.9336C24.7148 14.7656 27.0391 13.4961 30.8086 13.5156ZM30.8086 15.4492C28.4648 15.4492 27.1953 15.9375 27.2148 16.9336C27.1953 17.9492 28.4648 18.457 30.8086 18.457C33.1133 18.457 34.3438 17.9492 34.3438 16.9336C34.3438 15.9375 33.1133 15.4492 30.8086 15.4492ZM56.082 16.2695V18.2617H39.8125V16.2695H46.6094V12.2461H49.0898V16.2695H56.082ZM49.168 4.90234C49.168 7.44141 51.4531 10.1172 55.5156 10.7422L54.4609 12.8125C51.3359 12.2461 49.0117 10.5762 47.8398 8.35938C46.668 10.5664 44.3633 12.2559 41.2578 12.8125L40.2031 10.7422C44.2266 10.1172 46.4922 7.42188 46.5117 4.90234V3.63281H49.168V4.90234ZM73.3477 10.5859V12.4414H57.0781V10.5859H73.3477ZM71.3945 13.3203V17.5195H61.4336V18.5352H71.9219V20.2344H58.9531V15.9375H68.9336V15.0391H58.9336V13.3203H71.3945ZM71.375 2.92969V7.10938H61.5898V8.06641H71.6875V9.74609H59.1094V5.52734H68.875V4.62891H59.0703V2.92969H71.375ZM87.2734 13.4961C90.9648 13.4961 93.2695 14.7656 93.2695 16.9336C93.2695 19.1406 90.9648 20.4102 87.2734 20.4102C83.5039 20.4102 81.1797 19.1406 81.1797 16.9336C81.1797 14.7656 83.5039 13.4961 87.2734 13.4961ZM87.2734 15.4297C84.9297 15.4297 83.6602 15.918 83.6797 16.9336C83.6602 17.9492 84.9297 18.4766 87.2734 18.4766C89.5781 18.4766 90.8086 17.9492 90.8086 16.9336C90.8086 15.918 89.5781 15.4297 87.2734 15.4297ZM93.0938 2.61719V6.73828H95.4961V8.82812H93.0938V13.1055H90.5938V2.61719H93.0938ZM82 3.73047V5.97656H85.6328V3.73047H88.1328V12.0898H79.5195V3.73047H82ZM82 10.1172H85.6328V7.91016H82V10.1172ZM112.527 11.4062V13.3789H105.828V16.4453H103.367V13.3789H96.2578V11.4062H112.527ZM110.438 3.39844V9.94141H98.2891V3.39844H110.438ZM100.73 5.33203V8.00781H107.996V5.33203H100.73ZM110.73 18.0859V20.0781H98.1719V14.9023H100.652V18.0859H110.73ZM127.586 2.61719V9.57031H130.203V11.6211H127.586V20.3906H125.125V2.61719H127.586ZM123.914 5.27344V7.26562H113.465V5.27344H117.488V2.89062H119.988V5.27344H123.914ZM118.738 8.26172C121.336 8.26172 123.27 10.0195 123.27 12.5C123.27 14.9805 121.336 16.7383 118.738 16.7383C116.121 16.7383 114.188 14.9805 114.188 12.5C114.188 10.0195 116.121 8.26172 118.738 8.26172ZM118.738 10.2734C117.488 10.293 116.57 11.1328 116.57 12.5C116.57 13.8867 117.488 14.707 118.738 14.6875C119.988 14.707 120.887 13.8867 120.887 12.5C120.887 11.1328 119.988 10.293 118.738 10.2734ZM145.789 2.61719V20.3906H143.27V2.61719H145.789ZM140.457 4.47266C140.457 9.86328 138.562 14.3359 132.215 17.3438L130.906 15.3516C135.496 13.1836 137.518 10.3711 137.918 6.42578H131.863V4.47266H140.457ZM167.723 2.63672V15.6055H165.242V9.23828H162.332V7.22656H165.242V2.63672H167.723ZM168.152 18.0859V20.0781H155.926V14.4727H158.426V18.0859H168.152ZM159.461 6.11328C159.461 8.16406 160.711 10.3711 163.543 11.2891L162.312 13.2617C160.34 12.627 158.992 11.3281 158.211 9.70703C157.43 11.5039 156.014 12.9297 153.914 13.6328L152.645 11.6016C155.574 10.6836 156.902 8.35938 156.922 6.09375V5.82031H153.348V3.82812H162.996V5.82031H159.461V6.11328ZM180.184 8.02734C180.184 10.7227 181.16 13.418 183.68 14.7852L182.312 16.6016C180.711 15.7812 179.646 14.3359 179.031 12.5977C178.406 14.4922 177.342 16.0938 175.73 17.0312L174.305 15.1562C176.863 13.6719 177.82 10.7812 177.84 8.02734V7.61719H174.969V5.625H177.84V3.22266H180.164V5.625H182.977V7.61719H180.184V8.02734ZM190.008 2.61719V20.3906H187.645V2.61719H190.008ZM186.375 2.91016V19.5703H184.031V11.3867H181.941V9.35547H184.031V2.91016H186.375ZM206.473 4.17969V6.25C206.473 8.82812 206.473 11.3086 205.652 15.1562L203.172 14.9219C203.523 13.4375 203.719 12.1387 203.855 10.9375L193.543 11.4453L193.23 9.45312L203.973 9.0625C204.021 8.0957 204.021 7.16797 204.031 6.25V6.17188H193.777V4.17969H206.473ZM208.133 16.2305V18.2617H191.922V16.2305H208.133ZM213.25 4.45312L212.996 14.3555H210.496L210.242 4.45312H213.25ZM211.766 18.7695C210.848 18.7695 210.105 18.0273 210.125 17.1289C210.105 16.2305 210.848 15.5078 211.766 15.5078C212.625 15.5078 213.387 16.2305 213.387 17.1289C213.387 18.0273 212.625 18.7695 211.766 18.7695Z" fill="black"/>
</svg>
