<svg width="73" height="22" viewBox="0 0 73 22" fill="none" xmlns="http://www.w3.org/2000/svg">
<path d="M20.417 2.2878C20.417 1.6563 19.8475 1.17751 19.2254 1.28606L0.842083 4.49374C0.355271 4.57868 0 5.00131 0 5.49548V5.81926C0 6.30784 0.347477 6.72736 0.827514 6.81835L2.91641 7.21427L0.827513 7.61018C0.347476 7.70117 0 8.12069 0 8.60927V15.2081C0 15.6677 0.308276 16.0702 0.752009 16.1899L19.1353 21.1494C19.7815 21.3237 20.417 20.8369 20.417 20.1676V9.73978C20.417 9.25446 20.0741 8.83678 19.598 8.74234L11.6697 7.16946L19.598 5.59657C20.0741 5.50213 20.417 5.08445 20.417 4.59913V2.2878Z" fill="#410002"/>
<path d="M28.3702 14.483V20.1056C28.3702 21.1279 27.7374 21.8094 26.8368 21.8094H23.8186C22.918 21.8094 22.2852 21.1279 22.2852 20.1056V1.89913C22.2852 0.876839 22.918 0.195312 23.8186 0.195312H26.8368C27.7374 0.195312 28.3702 0.876839 28.3702 1.89913V6.79152C28.3702 7.81381 29.8793 7.76513 29.8793 8.78742V12.4871C29.8793 13.5094 28.3702 13.4607 28.3702 14.483Z" fill="#410002"/>
<path d="M73.0026 12.7062V13.4364C73.0026 14.4587 72.3941 15.1402 71.4692 15.1402H54.1389C53.214 15.1402 52.6055 14.4587 52.6055 13.4364V12.7062C52.6055 11.6839 53.214 11.0024 54.1389 11.0024H58.5201V10.3939H54.1389C53.214 10.3939 52.6055 9.71235 52.6055 8.69006V5.72055C52.6055 4.69826 53.214 3.94371 54.1146 3.87069C57.7413 3.52993 61.0272 3.57861 64.7512 4.01673V3.40822C60.9785 2.9701 57.6926 2.92142 54.0172 3.26218C53.1653 3.3352 52.6055 2.77538 52.6055 1.82611C52.6055 0.828159 53.1653 0.195312 54.0172 0.195312H71.4692C72.3941 0.195312 73.0026 0.876839 73.0026 1.89913V4.86864C73.0026 5.89093 72.3941 6.64548 71.4935 6.7185C67.8668 7.05926 64.5809 7.01058 60.8568 6.57246V7.18096C64.6295 7.61909 67.9155 7.66777 71.5909 7.327C72.4428 7.25398 73.0026 7.81381 73.0026 8.76308C73.0026 9.76103 72.4428 10.3939 71.5909 10.3939H67.0879V11.0024H71.4692C72.3941 11.0024 73.0026 11.6839 73.0026 12.7062ZM73.0026 17.4282V20.1056C73.0026 21.1279 72.3941 21.8094 71.4692 21.8094H66.2847C65.3598 21.8094 64.7512 21.1279 64.7512 20.1056V19.8622H54.1389C53.214 19.8622 52.6055 19.1807 52.6055 18.1584V17.4282C52.6055 16.4059 53.214 15.7244 54.1389 15.7244H71.4692C72.3941 15.7244 73.0026 16.4059 73.0026 17.4282Z" fill="#410002"/>
<path d="M51.0852 1.89913V20.1056C51.0852 21.1279 50.4767 21.8094 49.5518 21.8094H45.3653C44.4404 21.8094 43.8319 21.1279 43.8319 20.1056V1.89913C43.8319 0.876839 44.4404 0.195312 45.3653 0.195312H49.5518C50.4767 0.195312 51.0852 0.876839 51.0852 1.89913ZM43.2233 16.5276V20.1056C43.2233 21.1523 42.5905 21.8338 41.6899 21.6877C39.4993 21.3713 37.5764 20.3247 36.7245 18.8399C35.9213 20.3247 33.9741 21.3713 31.7591 21.6877C30.8828 21.8338 30.25 21.1523 30.25 20.1056V16.5276C30.25 15.7244 30.6638 15.0672 31.6861 14.2396C32.4893 13.6068 32.8787 12.4141 32.8787 10.4182V1.89913C32.8787 0.876839 33.5116 0.195312 34.4122 0.195312H39.0368C39.9618 0.195312 40.5703 0.876839 40.5703 1.89913V10.4182C40.5703 12.4141 40.984 13.6068 41.7873 14.2396C42.8096 15.0672 43.2233 15.7244 43.2233 16.5276Z" fill="#410002"/>
</svg>
