<svg width="117" height="112" viewBox="0 0 117 112" fill="none" xmlns="http://www.w3.org/2000/svg">
<g id="Frame 427319644">
<g id="Ellipse 141" opacity="0.22" filter="url(#filter0_f_382_39355)">
<circle cx="49.5552" cy="49.5552" r="33.5552" fill="#F3E2A7"/>
</g>
<path id="Vector 7340" d="M85.8276 91.1395L77.4698 60.4941L40.6953 106.184L85.8276 91.1395Z" fill="#77574D"/>
<path id="Vector 7338" d="M84.7406 58.7539L40.9023 106.832L116.672 58.7539H84.7406Z" fill="#FFDBD0"/>
<path id="Vector 7339" d="M40.1289 106.743L77.6924 59.2969L57.6676 65.7914L40.1289 106.743Z" fill="#FFB59D"/>
<path id="Union" fill-rule="evenodd" clip-rule="evenodd" d="M96.5004 97.5171C96.2636 98.5428 95.8964 99.452 95.4735 100.142C96.2013 100.113 97.0412 100.192 97.9156 100.394C100.343 100.955 102.117 102.245 101.879 103.277C101.641 104.308 99.4804 104.69 97.0532 104.13C96.2599 103.947 95.5363 103.686 94.9299 103.381C94.922 104.011 94.8387 104.709 94.6723 105.429C94.1119 107.856 92.8214 109.631 91.7899 109.393C90.7583 109.155 90.3763 106.994 90.9367 104.567C91.1156 103.792 91.3691 103.083 91.6648 102.485C90.8734 102.552 89.9232 102.481 88.9282 102.251C86.501 101.691 84.7264 100.4 84.9646 99.3686C85.2027 98.3371 87.3634 97.9551 89.7906 98.5154C90.8874 98.7687 91.8509 99.1709 92.5557 99.6311C92.4507 98.7956 92.5114 97.7524 92.7648 96.6547C93.3252 94.2275 94.6157 92.4529 95.6472 92.6911C96.6788 92.9292 97.0608 95.0899 96.5004 97.5171Z" fill="#F3E2A7"/>
<path id="Union_2" fill-rule="evenodd" clip-rule="evenodd" d="M45.8095 49.9686C46.0824 50.9872 46.1849 51.964 46.1348 52.7726C46.765 52.4036 47.5465 52.078 48.4166 51.8448C50.8228 51.2001 52.9955 51.5064 53.2695 52.5291C53.5435 53.5517 51.815 54.9033 49.4089 55.5481C48.6178 55.76 47.852 55.8692 47.1706 55.8839C47.4589 56.4435 47.7121 57.0972 47.9032 57.8104C48.548 60.2166 48.2416 62.3893 47.219 62.6633C46.1964 62.9373 44.8447 61.2089 44.2 58.8027C43.9949 58.0374 43.8861 57.2958 43.8659 56.6313C43.1999 57.059 42.3314 57.4395 41.3503 57.7024C38.9441 58.3471 36.7714 58.0408 36.4974 57.0181C36.2234 55.9955 37.9518 54.6439 40.358 53.9991C41.443 53.7084 42.4805 53.6111 43.3178 53.6856C42.8333 52.9973 42.3976 52.0483 42.1062 50.9609C41.4615 48.5547 41.7678 46.382 42.7905 46.108C43.8131 45.834 45.1647 47.5624 45.8095 49.9686Z" fill="#FFB4AB"/>
<path id="Union_3" fill-rule="evenodd" clip-rule="evenodd" d="M48.835 52.2731C48.2455 53.1471 47.5758 53.8652 46.9328 54.3578C47.6222 54.5916 48.3772 54.9666 49.1206 55.4681C51.1858 56.8611 52.38 58.7018 51.788 59.5795C51.196 60.4572 49.0419 60.0395 46.9767 58.6465C46.3005 58.1904 45.7177 57.6863 45.2603 57.1836C45.0272 57.7676 44.7004 58.3866 44.2882 58.9977C42.8952 61.0629 41.0544 62.2571 40.1767 61.6651C39.299 61.0731 39.7167 58.919 41.1097 56.8539C41.5544 56.1946 42.0447 55.6241 42.5348 55.1721C41.7737 54.9505 40.9146 54.544 40.0705 53.9746C38.0053 52.5817 36.8111 50.7409 37.4031 49.8632C37.9951 48.9855 40.1492 49.4032 42.2144 50.7962C43.1475 51.4256 43.9028 52.1464 44.3958 52.8284C44.5977 52.0118 45.0278 51.0615 45.6566 50.1292C47.0496 48.0641 48.8903 46.8698 49.768 47.4619C50.6457 48.0539 50.228 50.208 48.835 52.2731Z" fill="#FFB4AB"/>
</g>
<defs>
<filter id="filter0_f_382_39355" x="0.758111" y="0.758111" width="97.5932" height="97.5932" filterUnits="userSpaceOnUse" color-interpolation-filters="sRGB">
<feFlood flood-opacity="0" result="BackgroundImageFix"/>
<feBlend mode="normal" in="SourceGraphic" in2="BackgroundImageFix" result="shape"/>
<feGaussianBlur stdDeviation="7.62094" result="effect1_foregroundBlur_382_39355"/>
</filter>
</defs>
</svg>
