<svg width="393" height="73" viewBox="0 0 393 73" fill="none" xmlns="http://www.w3.org/2000/svg">
<rect x="10" width="375" height="73" rx="7" fill="#FFF8F6"/>
<path d="M38.6211 28.1875V29.2402H27.4512V28.1875H32.3867V26.7793H33.6719V28.1875H38.6211ZM33.6719 21.8984V23.0742H37.5V24.1133H33.7539C33.8906 25.2959 35.5859 26.1846 38.0195 26.3828L37.623 27.3809C35.5039 27.1826 33.7881 26.4717 33.0293 25.3301C32.2637 26.4717 30.5479 27.1826 28.4492 27.3809L28.0391 26.3828C30.459 26.1846 32.1543 25.2959 32.3047 24.1133H28.5723V23.0742H32.3867V21.8984H33.6719ZM33.0293 30.0469C35.6953 30.0469 37.2539 30.7715 37.2539 32.0977C37.2539 33.4238 35.6953 34.1484 33.0293 34.1348C30.3496 34.1484 28.7773 33.4238 28.7773 32.0977C28.7773 30.7715 30.3496 30.0469 33.0293 30.0469ZM33.0293 31.0176C31.1426 31.0176 30.0898 31.4004 30.0898 32.0977C30.0898 32.7949 31.1426 33.1641 33.0293 33.1504C34.8887 33.1641 35.9551 32.7949 35.9551 32.0977C35.9551 31.4004 34.8887 31.0176 33.0293 31.0176ZM69.3691 22.1172C72.1309 22.1172 73.7441 22.8555 73.7441 24.2227C73.7441 25.5898 72.1309 26.3418 69.3691 26.3418C66.6074 26.3418 64.9941 25.5898 64.9941 24.2227C64.9941 22.8555 66.6074 22.1172 69.3691 22.1172ZM69.3691 23.0742C67.4141 23.0742 66.334 23.498 66.3477 24.2227C66.334 24.9746 67.4141 25.3711 69.3691 25.3711C71.3242 25.3711 72.4043 24.9746 72.4043 24.2227C72.4043 23.498 71.3242 23.0742 69.3691 23.0742ZM74.9609 27.0938V28.1328H63.791V27.0938H74.9609ZM73.5527 29.0762V31.9473H66.416V33.041H73.8945V34.0391H65.1445V31.0039H72.2676V30.0469H65.1309V29.0762H73.5527ZM84.9824 29.541C87.5117 29.541 89.043 30.3887 89.043 31.8379C89.043 33.3008 87.5117 34.1484 84.9824 34.1621C82.4258 34.1484 80.8672 33.3008 80.8672 31.8379C80.8672 30.3887 82.4258 29.541 84.9824 29.541ZM84.9824 30.5664C83.2051 30.5664 82.1523 31.0176 82.166 31.8379C82.1523 32.6582 83.2051 33.123 84.9824 33.123C86.7461 33.123 87.7715 32.6582 87.7715 31.8379C87.7715 31.0176 86.7461 30.5664 84.9824 30.5664ZM88.9336 21.9121V24.9062H90.7109V26.0137H88.9336V29.2266H87.6348V21.9121H88.9336ZM81.0586 22.6777V24.4414H84.2715V22.6777H85.5566V28.3652H79.7871V22.6777H81.0586ZM81.0586 27.3262H84.2715V25.4668H81.0586V27.3262ZM102.605 28.1055V29.1582H97.7383V31.5371H96.4531V29.1582H91.3945V28.1055H102.605ZM101.156 22.4863V26.834H92.8301V22.4863H101.156ZM94.1016 23.5117V25.8086H99.8711V23.5117H94.1016ZM101.361 32.8496V33.9023H92.7891V30.375H94.0879V32.8496H101.361ZM113.953 21.9258V29.5H112.723V26.2734H111.328V29.3223H110.111V22.1035H111.328V25.2207H112.723V21.9258H113.953ZM109.633 23.2383V24.2773H103.439V23.2383H105.914V21.9668H107.199V23.2383H109.633ZM106.543 24.8242C108.102 24.8242 109.195 25.6582 109.195 26.9434C109.195 28.2012 108.102 29.0488 106.543 29.0488C105.012 29.0488 103.918 28.2012 103.918 26.9434C103.918 25.6582 105.012 24.8242 106.543 24.8242ZM106.543 25.7812C105.682 25.7812 105.08 26.2188 105.08 26.9434C105.08 27.6406 105.682 28.0918 106.543 28.0918C107.432 28.0918 108.02 27.6406 108.02 26.9434C108.02 26.2188 107.418 25.7812 106.543 25.7812ZM107.965 30.2246C107.951 31.2295 108.464 32.2617 109.564 32.877C110.665 32.2139 111.205 31.1064 111.205 30.2246V29.8555H112.49V30.2246C112.49 31.4004 113.338 32.5762 114.924 33.0273L114.309 34.0117C113.092 33.6152 112.265 32.8223 111.848 31.8516C111.451 32.7949 110.72 33.6768 109.592 34.1211C108.423 33.6973 107.685 32.8701 107.309 31.9062C106.857 32.8359 106.03 33.6084 104.875 34.0117L104.26 33.0273C105.818 32.5352 106.68 31.332 106.693 30.2246V29.8555H107.965V30.2246ZM118.93 22.8281C120.591 22.8281 121.808 24.2363 122.006 26.5059H124.535V21.9121H125.82V34.1895H124.535V27.5586H122.02C121.876 29.9443 120.632 31.4277 118.93 31.4277C117.098 31.4277 115.812 29.7598 115.826 27.1211C115.812 24.4961 117.098 22.8281 118.93 22.8281ZM118.93 23.9902C117.822 23.9902 117.057 25.1934 117.057 27.1211C117.057 29.0625 117.822 30.2656 118.93 30.2656C120.037 30.2656 120.803 29.0625 120.803 27.1211C120.803 25.1934 120.037 23.9902 118.93 23.9902ZM138.918 31.5508V32.6309H127.707V31.5508H130.387V28.3516C129.382 27.7979 128.773 26.916 128.773 25.8223C128.773 23.8945 130.66 22.623 133.285 22.623C135.924 22.623 137.811 23.8945 137.811 25.8223C137.811 26.9023 137.223 27.7705 136.238 28.3242V31.5508H138.918ZM133.285 23.6621C131.357 23.6621 130.031 24.4961 130.031 25.8223C130.031 27.1348 131.357 27.9961 133.285 27.9961C135.199 27.9961 136.553 27.1348 136.553 25.8223C136.553 24.4961 135.199 23.6621 133.285 23.6621ZM131.672 31.5508H134.926V28.8164C134.427 28.9463 133.873 29.0078 133.285 29.0078C132.711 29.0078 132.164 28.9463 131.672 28.8301V31.5508ZM142.062 23.1016L141.939 30.1426H140.586L140.463 23.1016H142.062ZM141.27 33.0957C140.736 33.0957 140.285 32.6582 140.299 32.125C140.285 31.5918 140.736 31.1543 141.27 31.1543C141.789 31.1543 142.24 31.5918 142.24 32.125C142.24 32.6582 141.789 33.0957 141.27 33.0957Z" fill="#313030"/>
<path d="M46.9746 33.1367C45.1426 33.123 43.2285 32.043 43.2285 28.3789C43.2285 24.9336 44.7188 22.9648 47.0977 22.9648C48.916 22.9648 50.1875 24.0996 50.4199 25.6719H48.9297C48.7383 24.8652 48.0957 24.2773 47.0977 24.2773C45.5664 24.2773 44.6777 25.6172 44.6777 27.8457H44.7871C45.3203 27.0117 46.25 26.5059 47.3301 26.5059C49.0938 26.5059 50.5156 27.8594 50.5156 29.7598C50.5156 31.6738 49.1074 33.1504 46.9746 33.1367ZM46.9609 31.8789C48.1641 31.8789 49.0527 30.9492 49.0527 29.7871C49.0527 28.6523 48.1914 27.7363 47.002 27.7363C45.7852 27.7363 44.8691 28.6934 44.8555 29.8008C44.8691 30.8945 45.7441 31.8789 46.9609 31.8789ZM61.9043 21.9258V30.9766H60.6055V26.3555H57.9258V28.9395H52.2793V22.7324H53.5781V24.8105H56.6406V22.7324H57.9258V25.3027H60.6055V21.9258H61.9043ZM62.1777 32.8496V33.9023H53.9062V30.0879H55.2188V32.8496H62.1777ZM53.5781 27.8867H56.6406V25.8086H53.5781V27.8867Z" fill="#F29272"/>
<path d="M309.853 17.2881V21.0156H311.399V21.8535H309.853V26.9346H308.832V17.2881H309.853ZM307.264 18.2119V19.0391H303.783V23.6904C305.4 23.6851 306.614 23.6152 307.983 23.3682L308.112 24.2275C306.608 24.4961 305.33 24.5498 303.536 24.5391H302.763V18.2119H307.264ZM316.244 17.4922C318.36 17.4922 319.682 18.1797 319.682 19.3398C319.682 20.4785 318.36 21.1553 316.244 21.1553C314.139 21.1553 312.807 20.4785 312.807 19.3398C312.807 18.1797 314.139 17.4922 316.244 17.4922ZM316.244 18.2979C314.762 18.2979 313.849 18.6738 313.859 19.3398C313.849 19.9844 314.762 20.3496 316.244 20.3604C317.716 20.3496 318.629 19.9844 318.629 19.3398C318.629 18.6738 317.716 18.2979 316.244 18.2979ZM319.563 23.583V26.7949H312.914V23.583H319.563ZM313.924 24.3994V25.9678H318.575V24.3994H313.924ZM320.638 21.8965V22.7236H311.861V21.8965H320.638ZM332.841 21.8105V22.6484H324.054V21.8105H332.841ZM331.82 20.1455V20.9727H325.149V17.6318H331.756V18.4697H326.159V20.1455H331.82ZM328.437 23.4004C330.51 23.4004 331.756 24.0342 331.756 25.1514C331.756 26.2686 330.51 26.9023 328.437 26.8916C326.353 26.9023 325.096 26.2686 325.096 25.1514C325.096 24.0342 326.353 23.4004 328.437 23.4004ZM328.437 24.1846C326.965 24.1953 326.127 24.5391 326.127 25.1514C326.127 25.7637 326.965 26.1074 328.437 26.1074C329.887 26.1074 330.735 25.7637 330.735 25.1514C330.735 24.5391 329.887 24.1953 328.437 24.1846ZM335.688 22.7773V23.9805H340.231V22.7773H341.23V26.7949H334.678V22.7773H335.688ZM335.688 25.957H340.231V24.7754H335.688V25.957ZM341.252 17.707V18.4375C341.252 19.1733 341.252 20.0005 341.005 21.166H342.369V21.9932H333.561V21.166H340.006C340.231 20.0596 340.242 19.2485 340.242 18.5449H334.667V17.707H341.252ZM350.716 17.2881V21.1982H352.112V22.0361H350.716V26.9131H349.695V17.2881H350.716ZM345.968 18.3193C345.968 20.7256 345.527 22.917 343.787 24.7754L342.981 24.2061C344.389 22.7451 344.899 21.0854 345.001 19.1572H343.325V18.3193H345.968ZM348.621 18.3193C348.621 20.7578 348.32 23.3145 346.548 25.4092L345.731 24.8506C347.16 23.1802 347.59 21.2144 347.665 19.1572H346.279V18.3193H348.621ZM356.119 20.124C356.119 21.7354 357.172 23.4004 358.654 24.0342L358.096 24.8291C356.962 24.3296 356.06 23.2715 355.614 21.9824C355.168 23.3574 354.261 24.5283 353.144 25.0762L352.553 24.2705C354.003 23.5938 355.077 21.7783 355.088 20.124V19.1035H352.886V18.2549H358.311V19.1035H356.119V20.124ZM360.545 17.2881V26.9131H359.524V17.2881H360.545Z" fill="#313030"/>
<path d="M317.945 53.2344C316.68 53.2344 315.531 52.9648 314.5 52.4258C313.469 51.8789 312.637 50.9883 312.004 49.7539C311.371 48.5117 311.055 46.8984 311.055 44.9141C311.055 43.0312 311.34 41.4062 311.91 40.0391C312.48 38.6641 313.293 37.6133 314.348 36.8867C315.402 36.1602 316.633 35.7969 318.039 35.7969C319.148 35.7969 320.145 36.0117 321.027 36.4414C321.91 36.8711 322.617 37.4609 323.148 38.2109C323.688 38.9609 324.016 39.8047 324.133 40.7422H320.664C320.523 40.1406 320.219 39.6719 319.75 39.3359C319.289 38.9922 318.719 38.8203 318.039 38.8203C316.906 38.8203 316.035 39.3008 315.426 40.2617C314.824 41.2148 314.516 42.5391 314.5 44.2344H314.664C315.047 43.4922 315.629 42.9102 316.41 42.4883C317.191 42.0586 318.055 41.8438 319 41.8438C320.008 41.8438 320.914 42.082 321.719 42.5586C322.531 43.0273 323.168 43.6797 323.629 44.5156C324.09 45.3438 324.32 46.2812 324.32 47.3281C324.32 48.4609 324.051 49.4766 323.512 50.375C322.98 51.2656 322.23 51.9648 321.262 52.4727C320.293 52.9805 319.188 53.2344 317.945 53.2344ZM317.875 50.4453C318.445 50.4453 318.961 50.3125 319.422 50.0469C319.883 49.7812 320.242 49.418 320.5 48.957C320.766 48.4961 320.898 47.9844 320.898 47.4219C320.898 46.8672 320.77 46.3594 320.512 45.8984C320.262 45.4375 319.91 45.0742 319.457 44.8086C319.004 44.5352 318.492 44.3984 317.922 44.3984C317.352 44.3984 316.832 44.5352 316.363 44.8086C315.902 45.0742 315.535 45.4414 315.262 45.9102C314.996 46.3711 314.859 46.875 314.852 47.4219C314.859 47.9766 314.992 48.4844 315.25 48.9453C315.516 49.4062 315.879 49.7734 316.34 50.0469C316.801 50.3125 317.312 50.4453 317.875 50.4453ZM333.344 53.2344C331.93 53.2344 330.711 52.8945 329.688 52.2148C328.672 51.5273 327.891 50.5312 327.344 49.2266C326.797 47.9219 326.523 46.3516 326.523 44.5156C326.523 42.6797 326.797 41.1094 327.344 39.8047C327.891 38.5 328.672 37.5078 329.688 36.8281C330.711 36.1406 331.93 35.7969 333.344 35.7969C334.75 35.7969 335.965 36.1406 336.988 36.8281C338.012 37.5078 338.797 38.5039 339.344 39.8164C339.891 41.1211 340.164 42.6875 340.164 44.5156C340.164 46.3594 339.891 47.9336 339.344 49.2383C338.797 50.543 338.012 51.5352 336.988 52.2148C335.973 52.8945 334.758 53.2344 333.344 53.2344ZM333.344 50.3281C334 50.3281 334.566 50.1172 335.043 49.6953C335.527 49.2734 335.898 48.6367 336.156 47.7852C336.422 46.9336 336.555 45.8828 336.555 44.6328C336.555 42.6875 336.273 41.2109 335.711 40.2031C335.148 39.1875 334.359 38.6797 333.344 38.6797C332.328 38.6797 331.539 39.1875 330.977 40.2031C330.414 41.2109 330.133 42.6875 330.133 44.6328C330.133 45.8828 330.262 46.9336 330.52 47.7852C330.785 48.6367 331.156 49.2734 331.633 49.6953C332.117 50.1172 332.688 50.3281 333.344 50.3281ZM347.055 44.5156C346.227 44.5156 345.52 44.3281 344.934 43.9531C344.348 43.5703 343.902 43.0391 343.598 42.3594C343.293 41.6797 343.141 40.8906 343.141 39.9922C343.141 39.0938 343.293 38.3008 343.598 37.6133C343.91 36.9258 344.359 36.3945 344.945 36.0195C345.539 35.6367 346.242 35.4453 347.055 35.4453C347.891 35.4453 348.598 35.6367 349.176 36.0195C349.762 36.3945 350.203 36.9258 350.5 37.6133C350.805 38.293 350.961 39.0859 350.969 39.9922C350.961 40.8984 350.805 41.6914 350.5 42.3711C350.195 43.0508 349.75 43.5781 349.164 43.9531C348.578 44.3281 347.875 44.5156 347.055 44.5156ZM347.055 42.4297C347.547 42.4297 347.918 42.2109 348.168 41.7734C348.426 41.3359 348.562 40.7422 348.578 39.9922C348.562 39.2266 348.43 38.625 348.18 38.1875C347.938 37.75 347.562 37.5312 347.055 37.5312C346.562 37.5312 346.184 37.7578 345.918 38.2109C345.66 38.6562 345.531 39.25 345.531 39.9922C345.531 40.7344 345.664 41.3281 345.93 41.7734C346.195 42.2109 346.57 42.4297 347.055 42.4297ZM358.492 53.5625C357.672 53.5625 356.969 53.375 356.383 53C355.797 52.6172 355.352 52.0859 355.047 51.4062C354.75 50.7266 354.602 49.9375 354.602 49.0391C354.602 48.1406 354.754 47.3477 355.059 46.6602C355.371 45.9727 355.82 45.4414 356.406 45.0664C356.992 44.6836 357.688 44.4922 358.492 44.4922C359.328 44.4922 360.039 44.6836 360.625 45.0664C361.211 45.4414 361.656 45.9727 361.961 46.6602C362.266 47.3398 362.422 48.1328 362.43 49.0391C362.422 49.9453 362.266 50.7383 361.961 51.418C361.656 52.0977 361.207 52.625 360.613 53C360.027 53.375 359.32 53.5625 358.492 53.5625ZM358.492 51.4766C358.992 51.4766 359.371 51.2617 359.629 50.832C359.887 50.4023 360.023 49.8047 360.039 49.0391C360.023 48.2734 359.891 47.6758 359.641 47.2461C359.391 46.8086 359.008 46.5938 358.492 46.6016C358.016 46.6016 357.645 46.8242 357.379 47.2695C357.121 47.7148 356.992 48.3047 356.992 49.0391C356.992 49.7891 357.121 50.3828 357.379 50.8203C357.645 51.2578 358.016 51.4766 358.492 51.4766ZM357.25 36.0312H359.875L348.203 53H345.578L357.25 36.0312Z" fill="#F29272"/>
<rect x="24" y="43" width="224" height="9" rx="4.5" fill="#E5E1E1"/>
<rect x="24" y="43" width="162" height="9" rx="4.5" fill="#FFB59D"/>
</svg>
