<svg width="25" height="24" viewBox="0 0 25 24" fill="none" xmlns="http://www.w3.org/2000/svg">
<g id="navigation-pointer-01">
<path id="Icon" d="M3.9115 10.7445C3.31615 10.513 3.01848 10.3972 2.93158 10.2304C2.85624 10.0858 2.85614 9.91354 2.9313 9.76886C3.01801 9.60195 3.31555 9.48584 3.91062 9.25361L20.7984 2.66327C21.3356 2.45364 21.6041 2.34883 21.7758 2.40616C21.9248 2.45596 22.0418 2.57292 22.0916 2.72197C22.1489 2.8936 22.0441 3.16219 21.8345 3.69937L15.2441 20.5871C15.0119 21.1822 14.8958 21.4797 14.7289 21.5664C14.5842 21.6416 14.4119 21.6415 14.2673 21.5662C14.1005 21.4793 13.9848 21.1816 13.7533 20.5862L11.1251 13.8282C11.0782 13.7074 11.0547 13.647 11.0184 13.5961C10.9862 13.551 10.9468 13.5115 10.9017 13.4794C10.8508 13.4431 10.7904 13.4196 10.6695 13.3726L3.9115 10.7445Z" stroke="#53433F" stroke-width="2" stroke-linecap="round" stroke-linejoin="round"/>
</g>
</svg>
