<svg width="393" height="128" viewBox="0 0 393 128" fill="none" xmlns="http://www.w3.org/2000/svg">
<circle cx="133.279" cy="79.5392" r="38.6535" fill="#FFDBD0"/>
<rect x="114.894" y="53.9497" width="36.0505" height="46.3507" fill="#D2795A"/>
<rect x="119.527" y="58.5859" width="27.2954" height="37.0805" fill="#FFF8F6"/>
<rect x="142.188" y="102.36" width="8.75513" height="6.18009" fill="#FFF8F6"/>
<circle cx="240.754" cy="41.0456" r="38.6535" fill="#FFEDE8"/>
<rect x="221.92" y="40.0752" width="8.24012" height="16.9952" fill="#FFF8F6"/>
<path fill-rule="evenodd" clip-rule="evenodd" d="M232.732 17.93C232.732 18.6759 232.61 19.3933 232.385 20.0634C234.711 21.1125 236.331 23.452 236.331 26.1697C236.331 27.1104 236.137 28.0058 235.786 28.818C239.012 29.2985 241.487 32.0801 241.487 35.4397C241.487 39.1373 238.489 42.1348 234.792 42.1348C233.506 42.1348 232.304 41.7722 231.284 41.1436C230.058 42.6891 228.163 43.6802 226.037 43.6802C224.329 43.6802 222.77 43.0407 221.587 41.9879C220.509 42.7304 219.203 43.1651 217.795 43.1651C214.097 43.1651 211.1 40.1676 211.1 36.47C211.1 33.4171 213.143 30.8415 215.937 30.0361C215.163 28.944 214.708 27.61 214.708 26.1697C214.708 23.1023 216.771 20.5166 219.585 19.7244C219.427 19.1533 219.342 18.5515 219.342 17.93C219.342 14.2324 222.339 11.2349 226.037 11.2349C229.734 11.2349 232.732 14.2324 232.732 17.93Z" fill="#FFB59D"/>
<rect x="252.823" y="47.7974" width="8.24012" height="16.9952" fill="#FFF8F6"/>
<path fill-rule="evenodd" clip-rule="evenodd" d="M263.118 25.8621C263.118 26.608 262.996 27.3254 262.771 27.9955C265.097 29.0446 266.716 31.3841 266.716 34.1018C266.716 35.0425 266.522 35.9379 266.172 36.7501C269.398 37.2306 271.873 40.0122 271.873 43.3719C271.873 47.0695 268.875 50.067 265.178 50.067C263.891 50.067 262.69 49.7043 261.67 49.0757C260.444 50.6212 258.549 51.6124 256.423 51.6124C254.715 51.6124 253.156 50.9728 251.973 49.9201C250.895 50.6625 249.589 51.0972 248.18 51.0972C244.483 51.0972 241.485 48.0997 241.485 44.4021C241.485 41.3492 243.529 38.7736 246.322 37.9682C245.549 36.8762 245.094 35.5421 245.094 34.1018C245.094 31.0344 247.157 28.4488 249.971 27.6566C249.812 27.0855 249.728 26.4837 249.728 25.8621C249.728 22.1645 252.725 19.167 256.423 19.167C260.12 19.167 263.118 22.1645 263.118 25.8621Z" fill="#D2795A"/>
<rect x="216.769" y="56.7622" width="46.8657" height="8.24012" fill="#FFDBD0"/>
<circle cx="342.219" cy="79.8029" r="38.6535" fill="#FFDBD0"/>
<path d="M340.743 100.207C326.117 100.413 320.915 79.8638 320.143 69.3062L361.343 69.8212C360.571 79.8638 355.369 100.001 340.743 100.207Z" fill="#FFF8F6"/>
<path d="M361.343 69.5611C361.343 72.6898 352.378 75.2262 341 75.2262C329.623 75.2262 320.143 72.4323 320.143 69.3036C320.143 66.1748 329.623 63.896 341 63.896C352.378 63.896 361.343 66.4323 361.343 69.5611Z" fill="#FFEDE8"/>
<path d="M358.159 68.9218C358.159 71.4089 350.646 73.4251 341.112 73.4251C331.578 73.4251 323.634 71.2042 323.634 68.7171C323.634 66.23 331.578 64.4185 341.112 64.4185C350.646 64.4185 358.159 66.4347 358.159 68.9218Z" fill="#F29272"/>
<path d="M371.126 80.1888C371.332 73.3907 363.487 71.8628 359.539 71.9487L358.159 76.4252C360.734 76.7685 366.44 77.5109 366.234 80.1888C366.028 82.8667 360.616 82.1081 357.784 81.6791L355.934 86.6265C360.912 87.3132 370.92 86.9869 371.126 80.1888Z" fill="#FFF8F6"/>
</svg>
