<svg width="25" height="24" viewBox="0 0 25 24" fill="none" xmlns="http://www.w3.org/2000/svg">
<g id="pencil-02">
<path id="Icon" d="M18.5 2L22.5 6M2.5 22L3.7764 17.3199C3.85968 17.0145 3.90131 16.8619 3.96523 16.7195C4.02199 16.5931 4.09172 16.4729 4.17332 16.3609C4.26521 16.2348 4.37711 16.1229 4.6009 15.8991L14.9343 5.56569C15.1323 5.36768 15.2313 5.26867 15.3455 5.23158C15.4459 5.19895 15.5541 5.19895 15.6545 5.23158C15.7687 5.26867 15.8677 5.36768 16.0657 5.56569L18.9343 8.43431C19.1323 8.63232 19.2313 8.73133 19.2684 8.84549C19.3011 8.94591 19.3011 9.05409 19.2684 9.15451C19.2313 9.26867 19.1323 9.36768 18.9343 9.56569L8.6009 19.8991C8.37711 20.1229 8.26521 20.2348 8.13908 20.3267C8.02709 20.4083 7.90692 20.478 7.78052 20.5348C7.63815 20.5987 7.48548 20.6403 7.18014 20.7236L2.5 22Z" stroke="#53433F" stroke-width="2" stroke-linecap="round" stroke-linejoin="round"/>
</g>
</svg>
