<svg width="25" height="24" viewBox="0 0 25 24" fill="none" xmlns="http://www.w3.org/2000/svg">
<g id="ticket-01">
<path id="Icon" d="M10.5 8V7M10.5 12.5V11.5M10.5 17V16M5.7 4H19.3C20.4201 4 20.9802 4 21.408 4.21799C21.7843 4.40973 22.0903 4.71569 22.282 5.09202C22.5 5.51984 22.5 6.0799 22.5 7.2V8.5C20.567 8.5 19 10.067 19 12C19 13.933 20.567 15.5 22.5 15.5V16.8C22.5 17.9201 22.5 18.4802 22.282 18.908C22.0903 19.2843 21.7843 19.5903 21.408 19.782C20.9802 20 20.4201 20 19.3 20H5.7C4.5799 20 4.01984 20 3.59202 19.782C3.21569 19.5903 2.90973 19.2843 2.71799 18.908C2.5 18.4802 2.5 17.9201 2.5 16.8V15.5C4.433 15.5 6 13.933 6 12C6 10.067 4.433 8.5 2.5 8.5V7.2C2.5 6.0799 2.5 5.51984 2.71799 5.09202C2.90973 4.71569 3.21569 4.40973 3.59202 4.21799C4.01984 4 4.5799 4 5.7 4Z" stroke="#53433F" stroke-width="2" stroke-linecap="round" stroke-linejoin="round"/>
</g>
</svg>
